<mxfile host="app.diagrams.net" modified="2022-08-20T21:26:37.871Z" agent="5.0 (Windows NT 10.0; Win64; x64) AppleWebKit/537.36 (KHTML, like Gecko) Chrome/104.0.0.0 Safari/537.36" etag="9fquTvIj9aB49F-Ee5T3" version="20.2.5" type="github">
  <diagram id="0Ih6kgNvfjJApKp02RVI" name="Page-1">
    <mxGraphModel dx="2515" dy="1388" grid="0" gridSize="10" guides="1" tooltips="1" connect="1" arrows="1" fold="1" page="1" pageScale="1" pageWidth="827" pageHeight="1169" math="0" shadow="0">
      <root>
        <mxCell id="0" />
        <mxCell id="1" parent="0" />
        <mxCell id="h8GXfj-TgWMUek4Y4tlX-59" value="Diagramme&amp;nbsp; de séquence gerer &lt;span style=&quot;background-color: rgb(255, 255, 255);&quot;&gt;Depenses&lt;/span&gt;" style="shape=umlFrame;whiteSpace=wrap;html=1;rounded=0;shadow=0;glass=0;sketch=0;fontSize=15;fillColor=none;width=317;height=24;" vertex="1" parent="1">
          <mxGeometry x="31" y="14" width="1639" height="1017" as="geometry" />
        </mxCell>
        <mxCell id="h8GXfj-TgWMUek4Y4tlX-1" value="Loop: pour &lt;br&gt;chaque&amp;nbsp;&lt;span style=&quot;background-color: initial; text-align: center;&quot;&gt;Depense&lt;/span&gt;" style="shape=umlFrame;whiteSpace=wrap;html=1;rounded=0;shadow=0;glass=0;sketch=0;fontSize=15;fillColor=none;width=157;height=39;align=left;" vertex="1" parent="1">
          <mxGeometry x="324" y="375" width="1322" height="164" as="geometry" />
        </mxCell>
        <mxCell id="h8GXfj-TgWMUek4Y4tlX-2" value=":Depense&lt;br&gt;Controler" style="shape=umlLifeline;perimeter=lifelinePerimeter;whiteSpace=wrap;html=1;container=1;collapsible=0;recursiveResize=0;outlineConnect=0;rounded=0;shadow=0;glass=0;sketch=0;fillColor=none;fontSize=15;fontColor=#CC6600;strokeColor=#CC6600;" vertex="1" parent="1">
          <mxGeometry x="604" y="65" width="130" height="950" as="geometry" />
        </mxCell>
        <mxCell id="h8GXfj-TgWMUek4Y4tlX-3" value="" style="html=1;points=[];perimeter=orthogonalPerimeter;rounded=0;shadow=0;glass=0;sketch=0;fontSize=15;fillColor=none;" vertex="1" parent="h8GXfj-TgWMUek4Y4tlX-2">
          <mxGeometry x="59" y="222" width="10" height="82" as="geometry" />
        </mxCell>
        <mxCell id="h8GXfj-TgWMUek4Y4tlX-4" value="" style="shape=umlLifeline;participant=umlActor;perimeter=lifelinePerimeter;whiteSpace=wrap;html=1;container=1;collapsible=0;recursiveResize=0;verticalAlign=top;spacingTop=36;outlineConnect=0;fillColor=none;size=32;sketch=0;shadow=0;rounded=0;glass=0;" vertex="1" parent="1">
          <mxGeometry x="110" y="65" width="20" height="950" as="geometry" />
        </mxCell>
        <mxCell id="h8GXfj-TgWMUek4Y4tlX-5" value="&lt;span style=&quot;color: rgb(0, 0, 0); font-family: Helvetica; font-size: 12px; font-style: normal; font-variant-ligatures: normal; font-variant-caps: normal; font-weight: 400; letter-spacing: normal; orphans: 2; text-align: center; text-indent: 0px; text-transform: none; widows: 2; word-spacing: 0px; -webkit-text-stroke-width: 0px; background-color: rgb(248, 249, 250); text-decoration-thickness: initial; text-decoration-style: initial; text-decoration-color: initial; float: none; display: inline !important;&quot;&gt;Administrateur&lt;/span&gt;" style="text;whiteSpace=wrap;html=1;" vertex="1" parent="1">
          <mxGeometry x="72" y="91" width="105" height="36" as="geometry" />
        </mxCell>
        <mxCell id="h8GXfj-TgWMUek4Y4tlX-6" value=":Depense&lt;br&gt;Service" style="shape=umlLifeline;perimeter=lifelinePerimeter;whiteSpace=wrap;html=1;container=1;collapsible=0;recursiveResize=0;outlineConnect=0;rounded=0;shadow=0;glass=0;sketch=0;fillColor=none;fontSize=15;fontColor=#CC6600;strokeColor=#CC6600;" vertex="1" parent="1">
          <mxGeometry x="846" y="65" width="130" height="950" as="geometry" />
        </mxCell>
        <mxCell id="h8GXfj-TgWMUek4Y4tlX-7" value="" style="html=1;points=[];perimeter=orthogonalPerimeter;rounded=0;shadow=0;glass=0;sketch=0;fontSize=15;fillColor=none;" vertex="1" parent="h8GXfj-TgWMUek4Y4tlX-6">
          <mxGeometry x="59" y="231" width="10" height="66" as="geometry" />
        </mxCell>
        <mxCell id="h8GXfj-TgWMUek4Y4tlX-8" value="" style="shape=umlLifeline;participant=umlEntity;perimeter=lifelinePerimeter;whiteSpace=wrap;html=1;container=1;collapsible=0;recursiveResize=0;verticalAlign=top;spacingTop=36;outlineConnect=0;rounded=0;shadow=0;glass=0;sketch=0;fontSize=15;fillColor=none;fontColor=#CC6600;strokeColor=#CC6600;" vertex="1" parent="1">
          <mxGeometry x="1051" y="65" width="65" height="950" as="geometry" />
        </mxCell>
        <mxCell id="h8GXfj-TgWMUek4Y4tlX-9" value="" style="html=1;points=[];perimeter=orthogonalPerimeter;rounded=0;shadow=0;glass=0;sketch=0;fontSize=15;fillColor=none;" vertex="1" parent="h8GXfj-TgWMUek4Y4tlX-8">
          <mxGeometry x="27" y="239" width="10" height="45" as="geometry" />
        </mxCell>
        <mxCell id="h8GXfj-TgWMUek4Y4tlX-10" value="&lt;span style=&quot;font-family: Helvetica; font-size: 15px; font-style: normal; font-variant-ligatures: normal; font-variant-caps: normal; font-weight: 400; letter-spacing: normal; orphans: 2; text-indent: 0px; text-transform: none; widows: 2; word-spacing: 0px; -webkit-text-stroke-width: 0px; background-color: rgb(248, 249, 250); text-decoration-thickness: initial; text-decoration-style: initial; text-decoration-color: initial; float: none; display: inline !important;&quot;&gt;Base de donnée&lt;br&gt;Livraison&lt;br&gt;&lt;/span&gt;" style="text;whiteSpace=wrap;html=1;fontSize=15;align=center;fillColor=default;fontColor=#CC6600;" vertex="1" parent="h8GXfj-TgWMUek4Y4tlX-8">
          <mxGeometry x="-21" y="45" width="119" height="45" as="geometry" />
        </mxCell>
        <mxCell id="h8GXfj-TgWMUek4Y4tlX-11" value="" style="shape=umlLifeline;participant=umlBoundary;perimeter=lifelinePerimeter;whiteSpace=wrap;html=1;container=1;collapsible=0;recursiveResize=0;verticalAlign=top;spacingTop=36;outlineConnect=0;rounded=0;shadow=0;glass=0;sketch=0;fontSize=15;fillColor=none;fontColor=#CC6600;strokeColor=#CC6600;" vertex="1" parent="1">
          <mxGeometry x="274" y="65" width="65" height="950" as="geometry" />
        </mxCell>
        <mxCell id="h8GXfj-TgWMUek4Y4tlX-12" value="&lt;span style=&quot;font-family: Helvetica; font-size: 15px; font-style: normal; font-variant-ligatures: normal; font-variant-caps: normal; font-weight: 400; letter-spacing: normal; orphans: 2; text-indent: 0px; text-transform: none; widows: 2; word-spacing: 0px; -webkit-text-stroke-width: 0px; background-color: rgb(248, 249, 250); text-decoration-thickness: initial; text-decoration-style: initial; text-decoration-color: initial; float: none; display: inline !important;&quot;&gt;Interface IHM&lt;/span&gt;&lt;br style=&quot;font-family: Helvetica; font-size: 15px; font-style: normal; font-variant-ligatures: normal; font-variant-caps: normal; font-weight: 400; letter-spacing: normal; orphans: 2; text-indent: 0px; text-transform: none; widows: 2; word-spacing: 0px; -webkit-text-stroke-width: 0px; background-color: rgb(248, 249, 250); text-decoration-thickness: initial; text-decoration-style: initial; text-decoration-color: initial;&quot;&gt;&lt;span style=&quot;font-family: Helvetica; font-size: 15px; font-style: normal; font-variant-ligatures: normal; font-variant-caps: normal; font-weight: 400; letter-spacing: normal; orphans: 2; text-indent: 0px; text-transform: none; widows: 2; word-spacing: 0px; -webkit-text-stroke-width: 0px; background-color: rgb(248, 249, 250); text-decoration-thickness: initial; text-decoration-style: initial; text-decoration-color: initial; float: none; display: inline !important;&quot;&gt;Depense&lt;/span&gt;" style="text;whiteSpace=wrap;html=1;fontSize=15;align=center;fillColor=default;fontColor=#CC6600;" vertex="1" parent="h8GXfj-TgWMUek4Y4tlX-11">
          <mxGeometry x="-24" y="45" width="122" height="45" as="geometry" />
        </mxCell>
        <mxCell id="h8GXfj-TgWMUek4Y4tlX-13" value="" style="html=1;points=[];perimeter=orthogonalPerimeter;rounded=0;shadow=0;glass=0;sketch=0;fontSize=15;fillColor=none;" vertex="1" parent="h8GXfj-TgWMUek4Y4tlX-11">
          <mxGeometry x="27.5" y="214" width="10" height="350" as="geometry" />
        </mxCell>
        <mxCell id="h8GXfj-TgWMUek4Y4tlX-14" value=":Employee&lt;br&gt;Controler" style="shape=umlLifeline;perimeter=lifelinePerimeter;whiteSpace=wrap;html=1;container=1;collapsible=0;recursiveResize=0;outlineConnect=0;rounded=0;shadow=0;glass=0;sketch=0;fillColor=none;fontSize=15;strokeColor=#0000CC;fontColor=#0000CC;" vertex="1" parent="1">
          <mxGeometry x="1153" y="65" width="130" height="950" as="geometry" />
        </mxCell>
        <mxCell id="h8GXfj-TgWMUek4Y4tlX-15" value="" style="html=1;points=[];perimeter=orthogonalPerimeter;rounded=0;shadow=0;glass=0;sketch=0;fontSize=15;fillColor=none;" vertex="1" parent="h8GXfj-TgWMUek4Y4tlX-14">
          <mxGeometry x="59" y="334" width="10" height="86" as="geometry" />
        </mxCell>
        <mxCell id="h8GXfj-TgWMUek4Y4tlX-16" value="" style="shape=umlLifeline;participant=umlEntity;perimeter=lifelinePerimeter;whiteSpace=wrap;html=1;container=1;collapsible=0;recursiveResize=0;verticalAlign=top;spacingTop=36;outlineConnect=0;rounded=0;shadow=0;glass=0;sketch=0;fontSize=15;fillColor=none;strokeColor=#0000CC;" vertex="1" parent="1">
          <mxGeometry x="1577" y="60" width="91" height="950" as="geometry" />
        </mxCell>
        <mxCell id="h8GXfj-TgWMUek4Y4tlX-17" value="Base de donnée&lt;br&gt;Personnel" style="text;whiteSpace=wrap;html=1;fontSize=15;align=center;fillColor=default;fontColor=#0000CC;" vertex="1" parent="h8GXfj-TgWMUek4Y4tlX-16">
          <mxGeometry x="-30" y="45" width="118" height="48" as="geometry" />
        </mxCell>
        <mxCell id="h8GXfj-TgWMUek4Y4tlX-18" value="" style="html=1;points=[];perimeter=orthogonalPerimeter;rounded=0;shadow=0;glass=0;sketch=0;fontSize=15;fillColor=none;" vertex="1" parent="h8GXfj-TgWMUek4Y4tlX-16">
          <mxGeometry x="27.5" y="352.5" width="10" height="55" as="geometry" />
        </mxCell>
        <mxCell id="h8GXfj-TgWMUek4Y4tlX-19" value=":Employee&lt;br&gt;Service" style="shape=umlLifeline;perimeter=lifelinePerimeter;whiteSpace=wrap;html=1;container=1;collapsible=0;recursiveResize=0;outlineConnect=0;rounded=0;shadow=0;glass=0;sketch=0;fillColor=none;fontSize=15;strokeColor=#0000CC;fontColor=#0000CC;" vertex="1" parent="1">
          <mxGeometry x="1384" y="65" width="130" height="950" as="geometry" />
        </mxCell>
        <mxCell id="h8GXfj-TgWMUek4Y4tlX-20" value="" style="html=1;points=[];perimeter=orthogonalPerimeter;rounded=0;shadow=0;glass=0;sketch=0;fontSize=15;fillColor=none;" vertex="1" parent="h8GXfj-TgWMUek4Y4tlX-19">
          <mxGeometry x="59" y="337" width="10" height="70" as="geometry" />
        </mxCell>
        <mxCell id="h8GXfj-TgWMUek4Y4tlX-21" value="" style="edgeStyle=elbowEdgeStyle;fontSize=12;html=1;endArrow=blockThin;endFill=1;rounded=0;" edge="1" parent="1" target="h8GXfj-TgWMUek4Y4tlX-13">
          <mxGeometry width="160" relative="1" as="geometry">
            <mxPoint x="119.32352941176464" y="288" as="sourcePoint" />
            <mxPoint x="258.5" y="288" as="targetPoint" />
            <Array as="points">
              <mxPoint x="190" y="288" />
              <mxPoint x="171" y="261" />
            </Array>
          </mxGeometry>
        </mxCell>
        <mxCell id="h8GXfj-TgWMUek4Y4tlX-22" value="demander list depenses" style="edgeLabel;html=1;align=center;verticalAlign=middle;resizable=0;points=[];fontSize=15;" vertex="1" connectable="0" parent="h8GXfj-TgWMUek4Y4tlX-21">
          <mxGeometry x="-0.3952" relative="1" as="geometry">
            <mxPoint x="37" y="-22" as="offset" />
          </mxGeometry>
        </mxCell>
        <mxCell id="h8GXfj-TgWMUek4Y4tlX-23" value="" style="edgeStyle=elbowEdgeStyle;fontSize=12;html=1;endArrow=blockThin;endFill=1;rounded=0;" edge="1" parent="1" source="h8GXfj-TgWMUek4Y4tlX-43" target="h8GXfj-TgWMUek4Y4tlX-3">
          <mxGeometry width="160" relative="1" as="geometry">
            <mxPoint x="532" y="237" as="sourcePoint" />
            <mxPoint x="637" y="443" as="targetPoint" />
            <Array as="points">
              <mxPoint x="561" y="297" />
              <mxPoint x="444" y="291" />
              <mxPoint x="426" y="304" />
            </Array>
          </mxGeometry>
        </mxCell>
        <mxCell id="h8GXfj-TgWMUek4Y4tlX-24" value="query()" style="edgeLabel;html=1;align=center;verticalAlign=middle;resizable=0;points=[];fontSize=15;" vertex="1" connectable="0" parent="h8GXfj-TgWMUek4Y4tlX-23">
          <mxGeometry x="-0.2194" y="3" relative="1" as="geometry">
            <mxPoint x="13" y="-9" as="offset" />
          </mxGeometry>
        </mxCell>
        <mxCell id="h8GXfj-TgWMUek4Y4tlX-25" value="" style="edgeStyle=elbowEdgeStyle;fontSize=12;html=1;endArrow=blockThin;endFill=1;rounded=0;" edge="1" parent="1" source="h8GXfj-TgWMUek4Y4tlX-3" target="h8GXfj-TgWMUek4Y4tlX-7">
          <mxGeometry width="160" relative="1" as="geometry">
            <mxPoint x="394" y="355" as="sourcePoint" />
            <mxPoint x="554" y="355" as="targetPoint" />
            <Array as="points">
              <mxPoint x="753" y="308" />
              <mxPoint x="602" y="293" />
              <mxPoint x="527" y="322" />
            </Array>
          </mxGeometry>
        </mxCell>
        <mxCell id="h8GXfj-TgWMUek4Y4tlX-26" value="getAll&lt;span style=&quot;background-color: rgb(248, 249, 250);&quot;&gt;Expenses&lt;/span&gt;()" style="edgeLabel;html=1;align=center;verticalAlign=middle;resizable=0;points=[];fontSize=15;" vertex="1" connectable="0" parent="h8GXfj-TgWMUek4Y4tlX-25">
          <mxGeometry x="0.1239" relative="1" as="geometry">
            <mxPoint x="-14" y="-11" as="offset" />
          </mxGeometry>
        </mxCell>
        <mxCell id="h8GXfj-TgWMUek4Y4tlX-27" value="" style="edgeStyle=elbowEdgeStyle;fontSize=12;html=1;endArrow=blockThin;endFill=1;rounded=0;" edge="1" parent="1" source="h8GXfj-TgWMUek4Y4tlX-7" target="h8GXfj-TgWMUek4Y4tlX-9">
          <mxGeometry width="160" relative="1" as="geometry">
            <mxPoint x="474" y="355" as="sourcePoint" />
            <mxPoint x="634" y="355" as="targetPoint" />
            <Array as="points">
              <mxPoint x="927" y="313" />
              <mxPoint x="766" y="318" />
            </Array>
          </mxGeometry>
        </mxCell>
        <mxCell id="h8GXfj-TgWMUek4Y4tlX-28" value="findAll()" style="edgeLabel;html=1;align=center;verticalAlign=middle;resizable=0;points=[];fontSize=15;" vertex="1" connectable="0" parent="h8GXfj-TgWMUek4Y4tlX-27">
          <mxGeometry x="-0.3561" y="2" relative="1" as="geometry">
            <mxPoint x="23" y="-9" as="offset" />
          </mxGeometry>
        </mxCell>
        <mxCell id="h8GXfj-TgWMUek4Y4tlX-29" value="liste des Depenses" style="html=1;verticalAlign=bottom;endArrow=open;dashed=1;endSize=8;rounded=0;fontSize=15;" edge="1" parent="1" source="h8GXfj-TgWMUek4Y4tlX-9" target="h8GXfj-TgWMUek4Y4tlX-7">
          <mxGeometry relative="1" as="geometry">
            <mxPoint x="806" y="342" as="sourcePoint" />
            <mxPoint x="668" y="342" as="targetPoint" />
            <Array as="points">
              <mxPoint x="948" y="346" />
            </Array>
          </mxGeometry>
        </mxCell>
        <mxCell id="h8GXfj-TgWMUek4Y4tlX-30" value="liste des Depenses" style="html=1;verticalAlign=bottom;endArrow=open;dashed=1;endSize=8;rounded=0;fontSize=15;" edge="1" parent="1" source="h8GXfj-TgWMUek4Y4tlX-7" target="h8GXfj-TgWMUek4Y4tlX-3">
          <mxGeometry relative="1" as="geometry">
            <mxPoint x="658" y="347" as="sourcePoint" />
            <mxPoint x="477" y="347" as="targetPoint" />
            <Array as="points">
              <mxPoint x="758" y="357" />
            </Array>
          </mxGeometry>
        </mxCell>
        <mxCell id="h8GXfj-TgWMUek4Y4tlX-31" value="liste des Depenses" style="html=1;verticalAlign=bottom;endArrow=open;dashed=1;endSize=8;rounded=0;fontSize=15;" edge="1" parent="1" source="h8GXfj-TgWMUek4Y4tlX-3" target="h8GXfj-TgWMUek4Y4tlX-43">
          <mxGeometry x="-0.0189" y="-3" relative="1" as="geometry">
            <mxPoint x="479" y="359" as="sourcePoint" />
            <mxPoint x="298" y="359" as="targetPoint" />
            <Array as="points">
              <mxPoint x="512" y="364" />
            </Array>
            <mxPoint as="offset" />
          </mxGeometry>
        </mxCell>
        <mxCell id="h8GXfj-TgWMUek4Y4tlX-32" value="" style="edgeStyle=elbowEdgeStyle;fontSize=12;html=1;endArrow=blockThin;endFill=1;rounded=0;" edge="1" parent="1" source="h8GXfj-TgWMUek4Y4tlX-43" target="h8GXfj-TgWMUek4Y4tlX-15">
          <mxGeometry width="160" relative="1" as="geometry">
            <mxPoint x="312" y="410" as="sourcePoint" />
            <mxPoint x="985.5000000000005" y="410" as="targetPoint" />
            <Array as="points">
              <mxPoint x="873" y="410" />
            </Array>
          </mxGeometry>
        </mxCell>
        <mxCell id="h8GXfj-TgWMUek4Y4tlX-33" value="loadRequester(id)" style="edgeLabel;html=1;align=center;verticalAlign=middle;resizable=0;points=[];fontSize=15;" vertex="1" connectable="0" parent="h8GXfj-TgWMUek4Y4tlX-32">
          <mxGeometry x="-0.2561" y="-3" relative="1" as="geometry">
            <mxPoint x="45" y="-15" as="offset" />
          </mxGeometry>
        </mxCell>
        <mxCell id="h8GXfj-TgWMUek4Y4tlX-34" value="" style="fontSize=12;html=1;endArrow=blockThin;endFill=1;rounded=0;" edge="1" parent="1" source="h8GXfj-TgWMUek4Y4tlX-15" target="h8GXfj-TgWMUek4Y4tlX-20">
          <mxGeometry width="160" relative="1" as="geometry">
            <mxPoint x="917" y="389" as="sourcePoint" />
            <mxPoint x="1077" y="389" as="targetPoint" />
            <Array as="points">
              <mxPoint x="1263" y="416" />
            </Array>
          </mxGeometry>
        </mxCell>
        <mxCell id="h8GXfj-TgWMUek4Y4tlX-35" value="getEmployee(id)" style="edgeLabel;html=1;align=center;verticalAlign=middle;resizable=0;points=[];fontSize=15;" vertex="1" connectable="0" parent="h8GXfj-TgWMUek4Y4tlX-34">
          <mxGeometry x="-0.2535" y="1" relative="1" as="geometry">
            <mxPoint x="20" y="-11" as="offset" />
          </mxGeometry>
        </mxCell>
        <mxCell id="h8GXfj-TgWMUek4Y4tlX-36" value="" style="edgeStyle=elbowEdgeStyle;fontSize=12;html=1;endArrow=blockThin;endFill=1;rounded=0;" edge="1" parent="1" source="h8GXfj-TgWMUek4Y4tlX-20" target="h8GXfj-TgWMUek4Y4tlX-18">
          <mxGeometry width="160" relative="1" as="geometry">
            <mxPoint x="1065" y="396" as="sourcePoint" />
            <mxPoint x="1225" y="396" as="targetPoint" />
            <Array as="points">
              <mxPoint x="1442" y="420" />
              <mxPoint x="1334" y="409" />
            </Array>
          </mxGeometry>
        </mxCell>
        <mxCell id="h8GXfj-TgWMUek4Y4tlX-37" value="findById(id)" style="edgeLabel;html=1;align=center;verticalAlign=middle;resizable=0;points=[];fontSize=15;" vertex="1" connectable="0" parent="h8GXfj-TgWMUek4Y4tlX-36">
          <mxGeometry x="-0.2685" y="1" relative="1" as="geometry">
            <mxPoint x="15" y="-11" as="offset" />
          </mxGeometry>
        </mxCell>
        <mxCell id="h8GXfj-TgWMUek4Y4tlX-38" value="employee" style="html=1;verticalAlign=bottom;endArrow=open;dashed=1;endSize=8;rounded=0;fontSize=15;" edge="1" parent="1" source="h8GXfj-TgWMUek4Y4tlX-18" target="h8GXfj-TgWMUek4Y4tlX-20">
          <mxGeometry relative="1" as="geometry">
            <mxPoint x="1511" y="460" as="sourcePoint" />
            <mxPoint x="1221" y="462" as="targetPoint" />
            <Array as="points">
              <mxPoint x="1449" y="459" />
            </Array>
          </mxGeometry>
        </mxCell>
        <mxCell id="h8GXfj-TgWMUek4Y4tlX-39" value="employee" style="html=1;verticalAlign=bottom;endArrow=open;dashed=1;endSize=8;rounded=0;fontSize=15;" edge="1" parent="1" source="h8GXfj-TgWMUek4Y4tlX-20" target="h8GXfj-TgWMUek4Y4tlX-15">
          <mxGeometry relative="1" as="geometry">
            <mxPoint x="1158" y="471" as="sourcePoint" />
            <mxPoint x="991" y="471" as="targetPoint" />
            <Array as="points">
              <mxPoint x="1237" y="469" />
            </Array>
          </mxGeometry>
        </mxCell>
        <mxCell id="h8GXfj-TgWMUek4Y4tlX-40" value="employee" style="html=1;verticalAlign=bottom;endArrow=open;dashed=1;endSize=8;rounded=0;fontSize=15;startArrow=none;" edge="1" parent="1" source="h8GXfj-TgWMUek4Y4tlX-15" target="h8GXfj-TgWMUek4Y4tlX-43">
          <mxGeometry x="0.1211" y="-4" relative="1" as="geometry">
            <mxPoint x="981" y="480.9999999999998" as="sourcePoint" />
            <mxPoint x="312" y="396.5090909090909" as="targetPoint" />
            <Array as="points">
              <mxPoint x="964" y="482" />
            </Array>
            <mxPoint as="offset" />
          </mxGeometry>
        </mxCell>
        <mxCell id="h8GXfj-TgWMUek4Y4tlX-41" value="liste des Depenses" style="html=1;verticalAlign=bottom;endArrow=open;dashed=1;endSize=8;rounded=0;fontSize=15;" edge="1" parent="1" source="h8GXfj-TgWMUek4Y4tlX-13" target="h8GXfj-TgWMUek4Y4tlX-4">
          <mxGeometry relative="1" as="geometry">
            <mxPoint x="258.5" y="577" as="sourcePoint" />
            <mxPoint x="119.32352941176464" y="577" as="targetPoint" />
            <Array as="points">
              <mxPoint x="219" y="585" />
            </Array>
          </mxGeometry>
        </mxCell>
        <mxCell id="h8GXfj-TgWMUek4Y4tlX-42" value="&amp;lt;&amp;lt;component&amp;gt;&amp;gt;&lt;br&gt;Depense" style="shape=umlLifeline;perimeter=lifelinePerimeter;whiteSpace=wrap;html=1;container=1;collapsible=0;recursiveResize=0;outlineConnect=0;rounded=0;shadow=0;glass=0;sketch=0;fillColor=none;fontSize=15;fontColor=#CC6600;strokeColor=#CC6600;" vertex="1" parent="1">
          <mxGeometry x="409" y="65" width="159" height="961" as="geometry" />
        </mxCell>
        <mxCell id="h8GXfj-TgWMUek4Y4tlX-43" value="" style="html=1;points=[];perimeter=orthogonalPerimeter;fontSize=15;fillColor=none;rounded=0;shadow=0;glass=0;sketch=0;" vertex="1" parent="h8GXfj-TgWMUek4Y4tlX-42">
          <mxGeometry x="74.5" y="217" width="10" height="297" as="geometry" />
        </mxCell>
        <mxCell id="h8GXfj-TgWMUek4Y4tlX-44" value="set&lt;span style=&quot;text-align: center;&quot;&gt;Requester&lt;/span&gt;(employee)" style="edgeStyle=orthogonalEdgeStyle;html=1;align=left;spacingLeft=2;endArrow=block;rounded=0;fontSize=15;" edge="1" parent="h8GXfj-TgWMUek4Y4tlX-42" source="h8GXfj-TgWMUek4Y4tlX-43" target="h8GXfj-TgWMUek4Y4tlX-43">
          <mxGeometry relative="1" as="geometry">
            <mxPoint x="-59" y="421" as="sourcePoint" />
            <Array as="points">
              <mxPoint x="114" y="437" />
              <mxPoint x="114" y="465" />
            </Array>
            <mxPoint x="-46" y="452" as="targetPoint" />
          </mxGeometry>
        </mxCell>
        <mxCell id="h8GXfj-TgWMUek4Y4tlX-45" value="" style="fontSize=12;html=1;endArrow=blockThin;endFill=1;rounded=0;" edge="1" parent="1" source="h8GXfj-TgWMUek4Y4tlX-13" target="h8GXfj-TgWMUek4Y4tlX-43">
          <mxGeometry width="160" relative="1" as="geometry">
            <mxPoint x="268.5" y="289" as="sourcePoint" />
            <mxPoint x="599" y="417" as="targetPoint" />
            <Array as="points">
              <mxPoint x="381" y="295" />
            </Array>
          </mxGeometry>
        </mxCell>
        <mxCell id="h8GXfj-TgWMUek4Y4tlX-46" value="loadExpenses()" style="edgeLabel;html=1;align=center;verticalAlign=middle;resizable=0;points=[];fontSize=15;" vertex="1" connectable="0" parent="h8GXfj-TgWMUek4Y4tlX-45">
          <mxGeometry x="-0.0064" y="-3" relative="1" as="geometry">
            <mxPoint x="11" y="-29" as="offset" />
          </mxGeometry>
        </mxCell>
        <mxCell id="h8GXfj-TgWMUek4Y4tlX-47" value="" style="html=1;verticalAlign=bottom;endArrow=open;dashed=1;endSize=8;rounded=0;" edge="1" parent="1" source="h8GXfj-TgWMUek4Y4tlX-43" target="h8GXfj-TgWMUek4Y4tlX-13">
          <mxGeometry relative="1" as="geometry">
            <mxPoint x="518" y="479" as="sourcePoint" />
            <mxPoint x="268.5" y="565.0000000000005" as="targetPoint" />
            <Array as="points">
              <mxPoint x="373" y="565" />
            </Array>
          </mxGeometry>
        </mxCell>
        <mxCell id="h8GXfj-TgWMUek4Y4tlX-48" value="&lt;span style=&quot;font-size: 15px;&quot;&gt;liste des Depenses&lt;/span&gt;" style="edgeLabel;html=1;align=center;verticalAlign=middle;resizable=0;points=[];" vertex="1" connectable="0" parent="h8GXfj-TgWMUek4Y4tlX-47">
          <mxGeometry x="-0.2232" y="3" relative="1" as="geometry">
            <mxPoint x="-19" y="-15" as="offset" />
          </mxGeometry>
        </mxCell>
        <mxCell id="h8GXfj-TgWMUek4Y4tlX-49" value="ref" style="shape=umlFrame;whiteSpace=wrap;html=1;labelBackgroundColor=none;fontSize=15;" vertex="1" parent="1">
          <mxGeometry x="40" y="190" width="1605" height="44" as="geometry" />
        </mxCell>
        <mxCell id="h8GXfj-TgWMUek4Y4tlX-50" value="&amp;lt;&amp;lt;Authentification&amp;gt;&amp;gt;" style="text;html=1;strokeColor=none;fillColor=none;align=center;verticalAlign=middle;whiteSpace=wrap;rounded=0;labelBackgroundColor=none;fontSize=15;fontColor=#000000;" vertex="1" parent="1">
          <mxGeometry x="722" y="197" width="152" height="30" as="geometry" />
        </mxCell>
        <mxCell id="h8GXfj-TgWMUek4Y4tlX-51" value="ref" style="shape=umlFrame;whiteSpace=wrap;html=1;labelBackgroundColor=none;fontSize=15;" vertex="1" parent="1">
          <mxGeometry x="40" y="645" width="1605" height="55" as="geometry" />
        </mxCell>
        <mxCell id="h8GXfj-TgWMUek4Y4tlX-52" value="ajouter Depense" style="text;html=1;strokeColor=none;fillColor=none;align=center;verticalAlign=middle;whiteSpace=wrap;rounded=0;labelBackgroundColor=none;fontSize=15;fontColor=#000000;" vertex="1" parent="1">
          <mxGeometry x="675" y="653" width="283" height="30" as="geometry" />
        </mxCell>
        <mxCell id="h8GXfj-TgWMUek4Y4tlX-53" value="ref" style="shape=umlFrame;whiteSpace=wrap;html=1;labelBackgroundColor=none;fontSize=15;" vertex="1" parent="1">
          <mxGeometry x="40" y="729" width="1605" height="55" as="geometry" />
        </mxCell>
        <mxCell id="h8GXfj-TgWMUek4Y4tlX-54" value="modifier Depense" style="text;html=1;strokeColor=none;fillColor=none;align=center;verticalAlign=middle;whiteSpace=wrap;rounded=0;labelBackgroundColor=none;fontSize=15;fontColor=#000000;" vertex="1" parent="1">
          <mxGeometry x="675" y="737" width="283" height="30" as="geometry" />
        </mxCell>
        <mxCell id="h8GXfj-TgWMUek4Y4tlX-55" value="ref" style="shape=umlFrame;whiteSpace=wrap;html=1;labelBackgroundColor=none;fontSize=15;" vertex="1" parent="1">
          <mxGeometry x="40" y="810" width="1605" height="55" as="geometry" />
        </mxCell>
        <mxCell id="h8GXfj-TgWMUek4Y4tlX-56" value="supprimer Depense" style="text;html=1;strokeColor=none;fillColor=none;align=center;verticalAlign=middle;whiteSpace=wrap;rounded=0;labelBackgroundColor=none;fontSize=15;fontColor=#000000;" vertex="1" parent="1">
          <mxGeometry x="676.5" y="818" width="283" height="30" as="geometry" />
        </mxCell>
        <mxCell id="h8GXfj-TgWMUek4Y4tlX-57" value="ref" style="shape=umlFrame;whiteSpace=wrap;html=1;labelBackgroundColor=none;fontSize=15;" vertex="1" parent="1">
          <mxGeometry x="40" y="889" width="1605" height="55" as="geometry" />
        </mxCell>
        <mxCell id="h8GXfj-TgWMUek4Y4tlX-58" value="consulter Depense" style="text;html=1;strokeColor=none;fillColor=none;align=center;verticalAlign=middle;whiteSpace=wrap;rounded=0;labelBackgroundColor=none;fontSize=15;fontColor=#000000;" vertex="1" parent="1">
          <mxGeometry x="675" y="897" width="283" height="30" as="geometry" />
        </mxCell>
      </root>
    </mxGraphModel>
  </diagram>
</mxfile>
